# xmcd CD database file
#
# Track frame offsets:
#	150
#	30155
#	61120
#	90903
#	105518
#	131830
#	154068
#	182380
#	212865
#	235845
#	250748
#
# Disc length: 3627 seconds
#
# Revision: 0
# Processed by: cddbd v1.5PL3 Copyright (c) Steve Scherf et al.
# Submitted via: CDex 1.50
#
DISCID=7d0e290b
DTITLE=Dick Whittington Trio - In New York
DYEAR=1992
DGENRE=Jazz
TTITLE0=Golden Earrings
TTITLE1=Born To Be Blue
TTITLE2=Just The Two Of Us
TTITLE3=Too Close For Comfort
TTITLE4=Marilyn's Waltz
TTITLE5=New Rhumba
TTITLE6=God Bless Th Child
TTITLE7=Manteca
TTITLE8=Judy's Waltz
TTITLE9=Chelsea Bridge
TTITLE10=Ev'ry Time We Say Goodbye
EXTD=YEAR: 1992
EXTT0=
EXTT1=
EXTT2=
EXTT3=
EXTT4=
EXTT5=
EXTT6=
EXTT7=
EXTT8=
EXTT9=
EXTT10=
PLAYORDER=
